<?xml version="1.0" encoding="UTF-8"?>
<svg version="1.1" viewBox="0 0 2000 2000" width="1280" height="1280" xmlns="http://www.w3.org/2000/svg">
<path transform="translate(966,473)" d="m0 0h69l44 2 46 4 32 4 23 3 8 4 5 5 2 5v7l-5 12-16 32-9 20-16 39-12 31-9 28-7 28-5 25 1 7 5 3 15 2 9 5 4 7v8l-4 6-8 5-18 3-1 12 1 9 54 18 24 11 11 6 5 4 4 7 1 11-4 10-8 7-12 6-19 6-25 6-16 3-36 5-11 2v45l5 68 5 52 4 31 6 38 6 28 11 44 16 49 14 33 12 23 7 9 8 8 14 9 8 6 9 14 1 3 1 15v19l2 15 6 12 9 12 12 12 11 7 17 10 16 8 23 12 11 9 15 14v2l3 1 4 7 6 15 2 9v11l-5 13-7 9-10 6-14 7-33 11-30 7-25 5-22 4-21 3-83 7-16 1h-109l-42-1-73-4-45-3-34-4-29-5-48-11-31-12-13-8-9-8-6-10-2-6v-11l2-12 7-14 8-10 8-8 14-10 15-9 30-15 17-11 8-6 10-9 4-5 12-18 4-15 1-13v-22l1-8 9-12 8-6 14-8 10-9 11-20 11-24 11-29 12-37 9-34 11-55 7-47 4-35 5-61 2-78-26-4-36-6-32-7-17-6-9-5-6-5-5-9-1-2v-8l4-8 5-5 8-6 12-6 69-24 2-3v-18l-6-2-8-2-12-6-3-6v-9l3-5 5-4 9-2 14-4v-8l-4-21-9-31-12-37-11-29-18-43-12-26-8-15-5-12 1-9 7-8 8-4 30-5 43-4 37-2 6-1zm105 257-5 3-91 1-59 1-16 1-3 1v2l8 2 21 2 10 2 24 1h78l48-1 13-1 2-3-1-5-10-3-2-2-4-1zm-51 76-50 1-10 1v4l9 4 21 7 16 8 16 9 3 1h11l36-2 87-2 10-2-4-4-13-6-14-4-36-11-15-4zm-19 154-2 7-1 20-3 129-2 73-5 54-5 33-7 36-3 14v9l4 3h48l49-1 13-1 2-1 18-2 4-2-1-7-7-11-7-10-14-26-7-15-8-19-9-27-9-33-9-44-4-22-8-45-7-42-9-38-9-32zm143 387-37 3-55 4-26 1h-50l-59-4-53-2-9-1h-14l2 4 16 6 24 7 39 8 33 4 37 2h14l41-2 45-5 24-4 16-4 17-5 7-6 5-2-1-3-4-1zm53 91-6 4-9 8-20 9-29 11-19 7-20 9-12 7-11 8-10 9-5 7-2 6-1 10 3 10 4 5 13 8 13 5 18 3 3 1 35 3h11l61-3 3-2 18-2 21-5 21-6 5-3 11-4 13-8 6-7v-10l-4-10-4-5-15-10-14-7-21-9-16-9-9-8-9-6-3-3h-2l-1-3-12-9z" fill="#3B9FD5"/>
<path transform="translate(610,594)" d="m0 0h18l12 3 12 7 9 10 5 12 1 5v20l-4 12-7 11-2 4 7 10 11 13 15 20 10 14 11 19 11 23 7 22 4 18 1 10v15l-1 17-7 20-8 16-8 12-7 9-7 6-1 2 12 2 12 4 3 5 1 5-3 6-5 3-13 2v16l10 3 27 10 21 9 10 6 5 10-2 7-7 6-11 5-19 6-28 4-24 3-4 2-1 10 2 13 2 37 4 36 8 45 8 35 8 31 9 27 8 16 10 16 11 12 8 6 8 5-1 7-5 16-1 33-4 11-7 11-8 8-14 9-23 12-24 12-16 11-14 12-9 10-7 10-7 15-7 21-2 4-3 1h-50l-44-3-47-2-31-4-25-5-20-6-17-7-10-7-6-8-2-5-1-12 3-12 7-11 6-7 8-6 10-7 23-12 19-11 13-12 6-9 4-9 1-8v-20l4-9 4-6 7-6 14-8 10-8 7-11 8-17 11-28 8-27 9-41 8-47 6-56 2-27 1-6v-11l-3-3-3-1h-9l-13-2-24-4-24-7-8-6-5-5-1-3v-7l4-6 7-4 21-9 20-8 17-6 1-2v-16h-12l-6-4-2-4v-8l3-4 10-4 15-1-7-9-5-5-7-8-9-14-5-11-6-20-2-14v-17l3-19 6-18 10-19 15-22 9-11 2-3h2l2-4 8-8 9-11 11-13 12-12 2-5-7-8-8-9-5-10-2-9v-13l3-11 4-8 9-10 10-6zm3 19-9 4-5 7-1 3v10l5 10 7 6 2 1h18l6-3 5-6 3-7v-7l-3-8-4-5-8-4-4-1zm13 69v9l3 12 1 7v25l-4 15-5 12-6 9-14 15-7 7-7 8-8 7-9 12-12 18-1 6 9-1 6-3 7-6 9-4 13-7 10-4 11-5 4-1 2 13 3 7 4 6 7 6 5 1h13l10-5 6-7 4-8 2-9v-35l-2-14-4-15-10-23-9-17-8-11-9-10-7-8-3-2zm-36 250-15 1-1 2 17 4 26 2h20l27-1 8-1 2-3 7-1-1-2-5-1zm36 47-21 2-9 3 3 3 15 5 11 6 5 3 6 1h88l4-2-1-3-25-10-19-6-9-2zm-7 107-2 6-2 30-1 53-1 29-1 12-1 3-2 47-2 13-3 21-4 21-2 4v6l1 2h78l13-1 7-3-1-5-7-12-9-15-11-21-9-25-8-30-10-48-9-52-5-22-3-10-3-3zm82 257-32 3-29 1-1 3-2-2-103-3h-11l3 3 8 4 26 5 16 2 13 2h52l23-2 24-3 9-2 16-4 10-3v-2l-2-1-17-1z" fill="#3C9FD5"/>
<path transform="translate(1367,593)" d="m0 0h19l12 3 10 6 8 9 6 12 3 11v14l-4 11-8 16 1 5 8 11 12 14 12 16 11 15 13 22 10 23 7 22 3 17 1 11v12l-3 20-5 16-5 12-8 13-9 10-4 6-1 4 5 2 7 2 10 2 4 6v6l-5 6-5 2-8 1-2 2v13l6 2 12 5 19 7 20 8 10 5 6 7v9l-4 6-14 7-17 5-20 4-17 3-22 2 3 44 2 10 2 28 3 27 4 21 7 33 7 27 9 29 9 22 7 14 9 15 2 5 4 2 8 6 11 7 7 6 7 14 1 28 3 8 7 9 10 10 11 7 26 14 15 9 13 11 8 9 6 13 1 5v14l-4 10-9 8-22 10-17 5-28 5-32 5-50 4-17 1h-73l-7-1-6-11-4-15-8-17-9-12-13-12-9-7-11-7-23-12-16-8-17-10-13-11-8-11-5-13-1-5-1-31-6-18 2-4 5-4 9-5 10-9 7-10 12-23 9-25 8-29 5-25 7-41 6-50 2-15 3-54-29-2-25-5-19-5-11-6-7-7-2-4 1-6 8-9 19-9 30-11 11-5 2-7-2-9-13-3-5-5-1-5 3-8 9-3 11-3-1-4-7-9-8-9-8-15-8-20-5-20-1-9v-11l2-14 4-16 7-17 10-18 11-16 13-17 12-13 9-10 16-16 5-7-1-5-9-7-6-8-5-10-3-12 1-11 4-13 6-9 7-7 8-4 9-3zm1 17-10 3-5 4-4 8-1 5v10l4 10 4 5 8 5 8 2 11-1 9-4 6-5 4-8v-16l-4-8-8-7-8-3zm14 71 1 10 5 24 1 7v10l-5 19-4 10-8 11-9 10-15 15-5 4-7 8-9 11-7 11-2 2 1 5 1 1h7l5-4 10-4 10-6 27-12 5-1 3 17 4 8 8 6 5 2 11 1 9-3 9-6 5-8 2-6 1-7v-36l-5-23-5-14-8-16-8-14-14-19-10-11-3-2zm-6 251-21 2-11 2 2 2 15 1 52-1 15-2 8-2v-1l-8-1zm19 46-24 1-9 2v4l23 11 8 5 14 1 74-1 10-3 4-2-1-3-26-8-11-3-11-2-10-2zm-11 105-1 4-2 64-3 63-1 31-4 39-3 14-1 11-2 5-1 8v9l1 2h72l3-1v-2l4 1 14-2 3-1-1-4-8-13-10-18-8-17-11-30-10-36-2-12-3-12-6-34-2-7-1-10-5-23-4-16-4-11zm-97 261v3l5 2 18 4 21 3 30 4 13 1h29l25-2 24-3 19-4 13-5-1-3h-17l-41 3-17 1-3 1-37-1-43-3-13-1zm241 56-10 11-15 7-29 11-18 8-19 10-10 8-4 5-3 8v8l4 8 16 8 6 2 23 3h46l36-5 27-6 19-7 8-7 4-5v-7l-4-8-7-6-25-12-16-8-14-12-7-8-5-6z" fill="#3AB2FB"/>
<path transform="translate(998,826)" d="m0 0 15 8 12 6h11l36-2 87-2 9-2-7-4 3-1 12 5 3 7 1 4-16 5-3 2-21 3-16 2-13 3-7 1-13 3-11 4-9 4-8 6-1 6 8 4 3 1 13 1 1 1 1 45 5 68 5 52 4 31 6 38 6 28 11 44 16 49 14 33 12 23 7 9 8 8 14 9 8 6 9 14 1 3 1 15v19l2 15 6 12 9 12 12 12 11 7 17 10 16 8 23 12 11 9 15 14v2l3 1 4 7 6 15 2 9v11l-5 13-7 9-10 6-14 7-33 11-30 7-25 5-22 4-21 3-83 7-16 1h-109v-1l45-1-17-1-5-2v-149l-1-59 1-19-3-3 28-2 22-1 45-5 24-4 16-4 17-5 7-6 5-1-1-2-4-1h-12l-37 3-39 3h-11v-1l5-1-3-2-5-3 3-4 9-2h3l1-3 4-2 13-1 2-1 18-2 4-1-3-9-9-13-9-15-9-17-7-15-8-19-9-27-9-33-9-44-4-22-8-45-7-42-9-38-8-29v-3l-3 1-1-13 1-118zm199 612-6 4-9 8-20 9-29 11-19 7-20 9-12 7-11 8-10 9-5 7-2 6-1 10 3 10 4 5 13 8 13 5 18 3 3 1 35 3h11l61-3 3-2 18-2 21-5 21-6 5-3 11-4 13-8 6-7v-10l-4-10-4-5-15-10-14-7-21-9-16-9-9-8-9-6-3-3h-2l-1-3-12-9z" fill="#3AB2FB"/>
<path transform="translate(1345,1580)" d="m0 0h5l1 7v40l-4 16-4 12-6 9-11 11-15 10-21 11-15 7-37 13-37 10-35 7-33 4-45 4-22 1-39 1h-38l-84-3-64-7-45-8-43-11-17-6-30-12-22-12-14-10-10-9-6-7-7-21-1-5v-47l2-2 8-1 10 4 31 14 21 8 35 10 25 6 35 6 39 5 17 2 22 1 14 2 55 2 34 2h12l17-2 18-1 39-1 9-2 34-2 20-3 19-2 36-6 33-7 28-7 20-6 10-4 30-10z" fill="#3AB2FB"/>
<path transform="translate(655,1582)" d="m0 0 9 3 33 15 21 8 35 10 25 6 35 6 39 5 17 2 22 1 14 2 55 2 34 2 2 1 10 1v3l-4 3h-2v84l1 6h-44l-52-2-64-7-45-8-43-11-17-6-30-12-22-12-14-10-10-9-6-7-7-21-1-5v-47l2-2z" fill="#3B9FD5"/>
<path transform="translate(938,254)" d="m0 0h116l9 2-3 9-8 14-14 20-8 13-1 2 10-2 40-13 5-1h7l3 7 1 18v59l-1 15-1 1h-11l-37-12-8-2h-8l7 12 26 39 1 6-9 3-12 1-32 1h-58l-16-1-4-1 1-6 9-15 7-11 7-10 10-16 1-3-13 2-32 10-13 3h-7l-1-2v-92l1-6 9 1 36 11 19 5-8-16-20-30-5-8v-5z" fill="#3C9FD5"/>
<path transform="translate(1008,495)" d="m0 0 35 1 24 2 25 1 27 3 23 2 8 3 1 3v7l-3 8-2 9-4 11-13 39-3 6-5 15-5 13-3 9-7 25-6 18-7 22-4 10-4 8-7 12-1 3-4 4 4-1 4 2-10 1-5 3h-21l-11-1-26-1-6-2-1-5-1-20-1-65v-139l4-4z" fill="#3AB3FC"/>
<path transform="translate(1635,1510)" d="m0 0h6l1 2v38l-3 10-7 10-9 8-16 9-22 10-22 7-36 8-52 7-12 2-41 4-35 2-4-3-2-10v-44l1-16 4-1 40-1 16-2 31-2 22-3 19-2 20-3 4-2 17-3 35-9 10-3 27-10z" fill="#3AB2FB"/>
<path transform="translate(361,1511)" d="m0 0h6l25 12 31 10 24 6 6 2 27 4 27 2 5 1 50 2 47 3 5 1 1 18v38l-1 13-5 3h-15l-70-5-27-4-48-9-19-5-21-7-21-10-11-8-10-9-5-6-4-10-1-14 1-23z" fill="#3B9FD5"/>
<path transform="translate(938,254)" d="m0 0h116l9 2-3 9-8 14-14 20-8 13-1 2 10-2 40-13 5-1h7l3 7 1 18v59l-1 15-1 1h-11l-37-12-8-2h-8l7 12 26 39 1 6-9 3-12 1-32 1h-20v-1h13l-1-4-2-10-1-136 1-34 2-4-4-1-60-1z" fill="#3AB3FB"/>
<path transform="translate(1038,745)" d="m0 0h30l15 1v2l2 1-1 7-4 8-2 8v12l1 17-2 2v2l-2 1h-54l-6-1h-9l-5-4-1-2v-51l-13-1v-1z" fill="#3AB2FB"/>
<path transform="translate(1443,1332)" d="m0 0h11v1l-10 1-2 6 1 4 3 1-4 2h-75l-5-2-3 2 2-5 3-5h2v-4z" fill="#3B9FD6"/>
<path transform="translate(1388,1526)" d="m0 0h84l5 1-1 2-12 2h-73l-6-2 3-1z" fill="#3BA1D9"/>
<path transform="translate(1378,1180)" d="m0 0h1v34l-1 31-4 39-2 6h-1l1-18 1-10 1-39 1-16-1-5 3-12z" fill="#3BA1D9"/>
<path transform="translate(1387,974)" d="m0 0h47v2l2 2h-60l4-3z" fill="#3C9FD5"/>
<path transform="translate(1363,1344)" d="m0 0 4 2h29l29 1v1l-17 1-3 1-37-1-8-1z" fill="#3BB3FC"/>
<path transform="translate(1384,1622)" d="m0 0h29l7 1v1l-13 2-20 1-3-2z" fill="#3BA1D9"/>
<path transform="translate(1118,837)" d="m0 0h39l-4 2-5 1h-38l-8-1v-1z" fill="#3BA3DE"/>
<path transform="translate(512,1343)" d="m0 0h9l11 1v1l-8 1 10 5-3 1-18-4-2-3z" fill="#47B8FC"/>
<path transform="translate(1367,593)" d="m0 0h19l8 2v1l-28 1-2-2z" fill="#3BA2DB"/>
<path transform="translate(1042,407)" d="m0 0 5 5 9 14v2l-4-1-3-3-2-4v-3h-2z" fill="#3BA4DE"/>
<path transform="translate(1474,930)" d="m0 0 5 1 3 5v6l-7 2 2-3-2-7z" fill="#3BA1DA"/>
<path transform="translate(1422,628)" d="m0 0 2 2 1 4v14h-3z" fill="#3BA8E7"/>
<path transform="translate(1488,1282)" d="m0 0 3 3 9 16 3 5-1 2-6-8-7-14z" fill="#3BA3DE"/>
<path transform="translate(1124,1203)" d="m0 0h3l5 16v2l-3-1-5-15z" fill="#49ABE2"/>
<path transform="translate(954,807)" d="m0 0 6 1v3l2 2h-7l-4-2v-3z" fill="#3AB3FC"/>
<path transform="translate(1374,1270)" d="m0 0h1l-1 14-2 6h-1l1-17z" fill="#3BA5E2"/>
<path transform="translate(1052,264)" d="m0 0h5l1 5-6 4-1-6z" fill="#3B9FD5"/>
<path transform="translate(1338,1583)" d="m0 0h6v2l-5 2-11 2v-2z" fill="#3BA3DD"/>
<path transform="translate(1474,1248)" d="m0 0 2 1 6 16v2h-2l-6-14z" fill="#3BA2DC"/>
<path transform="translate(1307,1165)" d="m0 0h1l-1 16v3h-3l1-11z" fill="#3BA3DE"/>
<path transform="translate(1113,1153)" d="m0 0 2 4 2 8v7l-2-2-3-13z" fill="#4CACE3"/>
<path transform="translate(721,1344)" d="m0 0h6l2 1-1 3-5 1h-7l3-2h4v-2z" fill="#68C4FC"/>
<path transform="translate(680,933)" d="m0 0 4 1v3l-3 1h-8l1-3 6-1z" fill="#3AB3FC"/>
<path transform="translate(1142,1252)" d="m0 0 2 1 6 14-1 3-5-9-2-5z" fill="#3BA2DB"/>
<path transform="translate(1295,1231)" d="m0 0 1 2-4 13-2 1 1-7 3-8z" fill="#47A9E1"/>
<path transform="translate(1120,1184)" d="m0 0 2 1 3 12-1 3-4-10z" fill="#42A6DE"/>
<path transform="translate(1436,710)" d="m0 0 5 5 5 6-1 3-4-5-1-3h-2z" fill="#3BA3DD"/>
<path transform="translate(1299,1213)" d="m0 0h2l-1 5-3 8h-1l1-9z" fill="#3BA2DB"/>
<path transform="translate(1448,726)" d="m0 0h2l7 10-1 3-8-11z" fill="#49AAE0"/>
<path transform="translate(624,678)" d="m0 0 5 2 1 2h-4v7l-2-3z" fill="#3AB3FC"/>
<path transform="translate(1484,1345)" d="m0 0h5l1 3-3 1h-7l4-2z" fill="#FEFEFE"/>
</svg>
